<svg xmlns="http://www.w3.org/2000/svg" width="1045" height="1024" fill="none" viewBox="0 0 1045 1024">
  <path stroke="#E5984A" stroke-width="9" d="M279.433 680.287c142.918-203.709 440.451-68.428 572.799-279.158 142.054-226.183-382.829-523.944-28.747-683.328 354.085-159.383 710.715-24.053 934.555 155.926 223.84 179.979 359.18 515.576 315.94 877.056-63.1 527.517-474.83 897.787-1005.79 916.027-382.985 13.15-777.827-59.75-882.869-428.28-60.601-212.62-32.862-377.259 94.112-558.243Z"/>
  <path stroke="#E5984A" stroke-width="9" d="M1456.17 388.453c196.52 152.658 46.92 443.258 250.97 585.701 219 152.886 541.94-356.887 683.91 4.529 141.97 361.417-10.55 711.047-201.2 925.867-190.66 214.82-545.21 385.57-891.39 272.9C911.5 2051.5 1158.5 1610.35 556.5 831c-170.432-220.641-26.531-476.715 346.672-563.704 215.308-50.187 378.408-14.471 552.998 121.157Z"/>
</svg>
